<svg width="14" height="14" viewBox="0 0 14 14" fill="none" xmlns="http://www.w3.org/2000/svg">
<path d="M11.0836 2.33406H10.5V1.75054C10.5 1.42789 10.2392 1.16702 9.91653 1.16702C9.59386 1.16702 9.33301 1.42788 9.33301 1.75054V2.33406H7.58301L7.58356 1.75054C7.58356 1.42789 7.32215 1.16702 7.00004 1.16702C6.67792 1.16702 6.41652 1.42788 6.41652 1.75054V2.33406H4.66652V1.75054C4.66652 1.42789 4.40511 1.16702 4.083 1.16702C3.76144 1.16702 3.50002 1.42788 3.50002 1.75054V2.33406H2.9165C1.95181 2.33406 1.1665 3.11883 1.1665 4.08406V11.0841C1.1665 12.0493 1.95127 12.8341 2.9165 12.8341H11.0829C12.0482 12.8341 12.8329 12.0493 12.8329 11.0841L12.8335 4.08406C12.8335 3.11883 12.0482 2.33406 11.0835 2.33406H11.0836ZM11.6665 11.0841C11.6665 11.4062 11.4051 11.6676 11.083 11.6676L2.91659 11.667C2.59503 11.667 2.33307 11.4056 2.33307 11.0835V6.99995H11.6666L11.6665 11.0841ZM11.6665 5.83406H2.33356V4.08406C2.33356 3.76196 2.59551 3.50054 2.91708 3.50054H3.5006V4.08406C3.5006 4.40672 3.762 4.66758 4.08412 4.66758C4.40623 4.66758 4.66764 4.40673 4.66764 4.08406L4.66654 3.50054H6.41654V4.08406C6.41654 4.40672 6.67795 4.66758 7.00006 4.66758C7.32218 4.66758 7.58358 4.40673 7.58358 4.08406V3.50054H9.33358V4.08406C9.33358 4.40672 9.59444 4.66758 9.9171 4.66758C10.2398 4.66758 10.5006 4.40673 10.5006 4.08406L10.5001 3.50054H11.0836C11.4057 3.50054 11.6671 3.76195 11.6671 4.08406L11.6665 5.83406Z" fill="black"/>
</svg>
