<svg width="141" height="28" viewBox="0 0 141 28" fill="none" xmlns="http://www.w3.org/2000/svg">
<path d="M131.265 27.5859C129.451 27.5859 127.815 27.1681 126.359 26.3325C124.926 25.4729 123.78 24.3389 122.921 22.9302C122.085 21.4977 121.667 19.9339 121.667 18.2388C121.667 16.4004 122.061 14.7769 122.849 13.3682C123.637 11.9357 124.735 10.8255 126.144 10.0377C127.553 9.24979 129.164 8.85585 130.979 8.85585C132.268 8.85585 133.462 9.14235 134.56 9.71535C135.658 10.2884 136.542 11.0524 137.21 12.0074C137.902 12.9624 138.249 13.989 138.249 15.0873L135.778 14.6575L135.813 1.19193H140.899V18.2388C140.899 20.0294 140.481 21.629 139.645 23.0377C138.81 24.4463 137.664 25.5565 136.207 26.3683C134.751 27.18 133.104 27.5859 131.265 27.5859ZM131.265 22.787C132.149 22.787 132.924 22.5841 133.593 22.1782C134.285 21.7484 134.823 21.1874 135.205 20.495C135.61 19.8026 135.813 19.0505 135.813 18.2388C135.813 17.4031 135.61 16.6391 135.205 15.9468C134.823 15.2305 134.285 14.6694 133.593 14.2636C132.924 13.8577 132.149 13.6547 131.265 13.6547C130.406 13.6547 129.63 13.8577 128.937 14.2636C128.269 14.6694 127.732 15.2305 127.326 15.9468C126.944 16.6391 126.753 17.4031 126.753 18.2388C126.753 19.0505 126.944 19.8026 127.326 20.495C127.732 21.1874 128.269 21.7484 128.937 22.1782C129.63 22.5841 130.406 22.787 131.265 22.787Z" fill="#27252E"/>
<path d="M109 13.7985C108.045 13.7985 107.257 14.0373 106.636 14.5148C106.015 14.9684 105.562 15.5772 105.275 16.3412C104.989 17.0814 104.845 17.917 104.845 18.8481V27.085H99.7599V18.2393C99.7599 16.5203 100.094 14.9565 100.763 13.5478C101.455 12.1153 102.482 10.9813 103.843 10.1456C105.203 9.28612 106.922 8.85637 109 8.85637C111.077 8.85637 112.796 9.28612 114.157 10.1456C115.541 10.9813 116.58 12.1034 117.272 13.512C117.965 14.9207 118.311 16.4964 118.311 18.2393V27.085H113.226V18.8481C113.226 17.9409 113.07 17.1052 112.76 16.3412C112.45 15.5772 111.984 14.9684 111.363 14.5148C110.766 14.0373 109.978 13.7985 109 13.7985Z" fill="#27252E"/>
<path d="M85.0461 27.5496C83.3271 27.5496 81.811 27.1318 80.4979 26.2962C79.1847 25.4367 78.1462 24.3026 77.3821 22.894C76.642 21.4615 76.272 19.8857 76.272 18.1667C76.272 16.4716 76.6898 14.9197 77.5254 13.5111C78.3849 12.0786 79.5309 10.9445 80.9634 10.1089C82.4198 9.24935 84.0553 8.8196 85.8698 8.8196C87.7081 8.8196 89.3555 9.23741 90.8119 10.073C92.2683 10.8848 93.4143 11.995 94.2499 13.4036C95.0856 14.7884 95.5034 16.3761 95.5034 18.1667V27.0841H90.6687V20.6736L92.2086 20.2439C92.2086 21.6286 91.9102 22.8821 91.3133 24.0042C90.7164 25.1024 89.8927 25.9739 88.8422 26.6185C87.7917 27.2393 86.5263 27.5496 85.0461 27.5496ZM85.8698 22.7866C86.7531 22.7866 87.5291 22.5836 88.1976 22.1777C88.89 21.748 89.4272 21.1869 89.8092 20.4945C90.215 19.8022 90.418 19.0382 90.418 18.2025C90.418 17.3669 90.215 16.6029 89.8092 15.9105C89.4272 15.2181 88.89 14.669 88.1976 14.2631C87.5291 13.8334 86.7531 13.6185 85.8698 13.6185C85.0103 13.6185 84.2343 13.8334 83.5419 14.2631C82.8734 14.669 82.3362 15.2181 81.9304 15.9105C81.5484 16.6029 81.3574 17.3669 81.3574 18.2025C81.3574 19.0382 81.5484 19.8022 81.9304 20.4945C82.3362 21.1869 82.8734 21.748 83.5419 22.1777C84.2343 22.5836 85.0103 22.7866 85.8698 22.7866Z" fill="#27252E"/>
<path d="M67.1118 1.19193H72.1972V27.0845H67.1118V1.19193Z" fill="#27252E"/>
<path d="M56.34 1.19193H61.4254V27.0845H56.34V1.19193Z" fill="#27252E"/>
<path d="M45.6382 9.35731H50.7236V27.0846H45.6382V9.35731ZM48.1809 6.70717C47.6079 6.70717 47.0707 6.57585 46.5693 6.31323C46.0918 6.02673 45.7098 5.64472 45.4233 5.16722C45.1607 4.66584 45.0294 4.12865 45.0294 3.55565C45.0294 2.98264 45.1607 2.45739 45.4233 1.97989C45.7098 1.50239 46.0918 1.12038 46.5693 0.833882C47.0707 0.54738 47.6079 0.404129 48.1809 0.404129C48.7539 0.404129 49.2791 0.54738 49.7566 0.833882C50.2341 1.12038 50.6042 1.50239 50.8668 1.97989C51.1533 2.45739 51.2966 2.98264 51.2966 3.55565C51.2966 4.12865 51.1533 4.66584 50.8668 5.16722C50.6042 5.64472 50.2341 6.02673 49.7566 6.31323C49.2791 6.57585 48.7539 6.70717 48.1809 6.70717Z" fill="#27252E"/>
<path d="M42.1857 27.0845H36.1334L31.227 21.068C30.5108 20.1607 30.1527 19.1818 30.1527 18.1313C30.1527 17.1047 30.5227 16.1497 31.2629 15.2663L36.1692 9.35722H42.2215L34.7009 18.3104C34.7009 18.2865 34.7009 18.2627 34.7009 18.2388C34.7247 18.2149 34.7367 18.1791 34.7367 18.1313C34.7367 18.1075 34.7247 18.0836 34.7009 18.0597C34.7009 18.012 34.7009 17.9881 34.7009 17.9881L42.1857 27.0845ZM28.935 27.0845H23.8496V1.19193H28.935V27.0845ZM28.1113 20.0294V16.2333H32.2298V20.0294H28.1113Z" fill="#27252E"/>
<path d="M10.155 27.55C8.00623 27.55 6.09622 27.1084 4.42496 26.225C2.77758 25.3177 1.57188 24.0046 0.807877 22.2856L5.17703 20.101C5.55903 20.9605 6.16785 21.6171 7.00348 22.0707C7.86298 22.5243 8.91349 22.7511 10.155 22.7511C10.919 22.7511 11.5875 22.6556 12.1605 22.4646C12.7574 22.2498 13.2349 21.9513 13.593 21.5693C13.9511 21.1634 14.1302 20.674 14.1302 20.101C14.1302 19.4325 13.9392 18.9311 13.5572 18.5969C13.1752 18.2387 12.6499 17.9761 11.9814 17.809C11.3129 17.6419 10.5609 17.4867 9.72524 17.3434C8.81799 17.1763 7.86298 16.9614 6.86022 16.6988C5.88134 16.4123 4.95021 16.0064 4.06683 15.4812C3.20733 14.9559 2.51495 14.2516 1.9897 13.3682C1.46444 12.461 1.20182 11.3388 1.20182 10.0018C1.20182 8.5693 1.58382 7.30392 2.34782 6.20566C3.11183 5.08353 4.16233 4.20015 5.49934 3.55552C6.83635 2.88702 8.32855 2.55276 9.97593 2.55276C11.9814 2.55276 13.784 3.00639 15.3836 3.91365C16.9833 4.79703 18.1651 6.09822 18.9291 7.81723L14.56 10.0018C14.178 9.21393 13.5811 8.58124 12.7693 8.10374C11.9814 7.62623 10.9787 7.38748 9.76105 7.38748C9.11643 7.38748 8.54342 7.48298 8.04204 7.67398C7.54067 7.86498 7.14673 8.13955 6.86022 8.49768C6.57372 8.8558 6.43047 9.28556 6.43047 9.78693C6.43047 10.4316 6.63341 10.9449 7.03929 11.3269C7.44517 11.685 7.99429 11.9596 8.68667 12.1506C9.40293 12.3416 10.1908 12.5206 11.0503 12.6878C11.9576 12.8549 12.8887 13.0817 13.8437 13.3682C14.8226 13.6308 15.7179 14.0248 16.5297 14.55C17.3653 15.0753 18.0457 15.7796 18.571 16.663C19.0962 17.5464 19.3589 18.6804 19.3589 20.0652C19.3589 21.4977 18.941 22.7869 18.1054 23.933C17.2937 25.0551 16.1954 25.9385 14.8106 26.5831C13.4259 27.2277 11.874 27.55 10.155 27.55Z" fill="#27252E"/>
</svg>
