<svg width="15" height="15" viewBox="0 0 15 15" fill="none" xmlns="http://www.w3.org/2000/svg">
<path d="M7.5 0C6.64298 0 5.94824 0.694738 5.94824 1.55176V5.94824H1.55176C0.694738 5.94824 0 6.64298 0 7.5C0 8.35702 0.694738 9.05176 1.55176 9.05176H5.94824V13.4482C5.94824 14.3053 6.64298 15 7.5 15C8.35702 15 9.05176 14.3053 9.05176 13.4482V9.05176H13.4482C14.3053 9.05176 15 8.35702 15 7.5C15 6.64298 14.3053 5.94824 13.4482 5.94824H9.05176V1.55176C9.05176 0.694738 8.35702 0 7.5 0Z" fill="black"/>
</svg>
