<svg width="20" height="20" viewBox="0 0 20 20" fill="none" xmlns="http://www.w3.org/2000/svg">
<path d="M12.7 5.8H11.78C11.68 5.33997 11.28 5 10.8 5H9.2C8.71999 5 8.31999 5.33997 8.21999 5.8H7.3C5.79759 5.8 5.1955 7.71817 6.4 8.12V13.8C6.4 14.46 6.93997 15 7.6 15H12.4C13.06 15 13.6 14.46 13.6 13.8V8.14C14.7772 7.74742 14.2426 5.8 12.7 5.8ZM6.76 7.4C6.338 7.4 6.6656 6.6 7.32004 6.6H12.7C13.3538 6.6 13.6823 7.4 13.2601 7.4H6.76ZM9 6C9 5.88001 9.08002 5.8 9.2 5.8H10.8C10.92 5.8 11 5.88001 11 6V6.2H9V6ZM12.8 13.8C12.8 14.02 12.62 14.2 12.4 14.2H7.6C7.38002 14.2 7.2 14.02 7.2 13.8V8.2H12.8V13.8ZM8.1 13.2V9H8.7V13.2C8.7 13.5944 8.1 13.595 8.1 13.2ZM11.3 13.2V9H11.9V13.2C11.9 13.5944 11.3 13.595 11.3 13.2ZM9.7 13.2V9H10.3V13.2C10.3 13.5944 9.7 13.595 9.7 13.2Z" fill="#DB0D0A"/>
</svg>
