<svg width="20" height="20" viewBox="0 0 20 20" fill="none" xmlns="http://www.w3.org/2000/svg">
<path d="M11.9673 5.28751C11.3199 5.28751 10.7881 5.82019 10.7881 6.46759V13.5539C10.7881 14.2013 11.3199 14.7332 11.9673 14.7332H12.7546C13.4019 14.7332 13.9376 14.2013 13.9376 13.5539V6.46759C13.9376 5.82019 13.4019 5.28751 12.7546 5.28751H11.9673Z" fill="#D47C16"/>
<path d="M7.24558 5.28751C6.59825 5.28751 6.06323 5.82019 6.06323 6.46759V13.5539C6.06323 14.2013 6.59827 14.7332 7.24558 14.7332H8.03353C8.68093 14.7332 9.21283 14.2013 9.21283 13.5539V6.46759C9.21283 5.82019 8.68093 5.28751 8.03353 5.28751H7.24558Z" fill="#D47C16"/>
</svg>
