<svg width="20" height="20" viewBox="0 0 20 20" fill="none" xmlns="http://www.w3.org/2000/svg">
<path d="M15.3718 13.2H10.7421C10.4101 13.2 10.1421 13.468 10.1421 13.8C10.1421 14.132 10.4101 14.4 10.7421 14.4H15.3718C15.7038 14.4 15.9718 14.132 15.9718 13.8C15.9718 13.468 15.7038 13.2 15.3718 13.2Z" fill="black"/>
<path d="M14.35 7.17184L11.5219 4.34367C11.2977 4.11945 10.8977 4.11945 10.6742 4.34367L4.45239 10.5655C4.34068 10.6772 4.27661 10.8311 4.27661 10.9897V13.8179C4.27661 14.1499 4.54458 14.4179 4.87661 14.4179H7.70478C7.86493 14.4179 8.01649 14.3538 8.12899 14.2421L14.3508 8.02027C14.5852 7.7859 14.5852 7.4062 14.3508 7.17262L14.35 7.17184ZM7.45404 13.2178H5.47438V11.2382L11.0962 5.61634L13.0759 7.596L7.45404 13.2178Z" fill="black"/>
</svg>
