<svg width="20" height="20" viewBox="0 0 20 20" fill="none" xmlns="http://www.w3.org/2000/svg">
<path d="M14.9727 11.5336C14.7719 11.3329 14.4461 11.3329 14.2453 11.5336L10.0593 15.7196H10.0601C10.0265 15.7517 9.97341 15.7517 9.93981 15.7196L5.75465 11.5336C5.55386 11.3329 5.22808 11.3329 5.0273 11.5336C4.82651 11.7344 4.82651 12.0602 5.0273 12.261L9.5733 16.807C9.80923 17.0429 10.1905 17.0429 10.4264 16.807L14.9724 12.261C15.1732 12.0602 15.1732 11.7344 14.9724 11.5336H14.9727Z" fill="black"/>
<path d="M14.9726 8.46635C14.7719 8.66714 14.4461 8.66714 14.2453 8.46635L10.0601 4.28035C10.0265 4.24832 9.97341 4.24832 9.93981 4.28035L5.75465 8.46635C5.55386 8.66714 5.22808 8.66714 5.0273 8.46635C4.82651 8.26557 4.82651 7.93979 5.0273 7.739L9.5733 3.193C9.80923 2.95707 10.1905 2.95707 10.4264 3.193L14.9724 7.739C15.1732 7.93979 15.1732 8.26557 14.9724 8.46635H14.9726Z" fill="black"/>
</svg>
