<svg width="20" height="20" viewBox="0 0 20 20" fill="none" xmlns="http://www.w3.org/2000/svg">
<path d="M8.125 20C7.875 20 7.65834 19.9167 7.475 19.75C7.29167 19.5833 7.18333 19.375 7.15 19.125L6.85 16.8C6.63334 16.7167 6.42917 16.6167 6.2375 16.5C6.04584 16.3833 5.85834 16.2583 5.675 16.125L3.5 17.025C3.26667 17.125 3.03334 17.1375 2.8 17.0625C2.56667 16.9875 2.38334 16.8417 2.25 16.625L0.400002 13.4C0.266668 13.1833 0.225002 12.95 0.275002 12.7C0.325002 12.45 0.450002 12.25 0.650002 12.1L2.525 10.675C2.50834 10.5583 2.5 10.4458 2.5 10.3375V9.6625C2.5 9.55417 2.50834 9.44167 2.525 9.325L0.650002 7.9C0.450002 7.75 0.325002 7.55 0.275002 7.3C0.225002 7.05 0.266668 6.81667 0.400002 6.6L2.25 3.375C2.38334 3.15833 2.56667 3.0125 2.8 2.9375C3.03334 2.8625 3.26667 2.875 3.5 2.975L5.675 3.875C5.85834 3.74167 6.05 3.61667 6.25 3.5C6.45 3.38333 6.65 3.28333 6.85 3.2L7.15 0.875C7.18333 0.625 7.29167 0.416667 7.475 0.25C7.65834 0.0833333 7.875 0 8.125 0H11.875C12.125 0 12.3417 0.0833333 12.525 0.25C12.7083 0.416667 12.8167 0.625 12.85 0.875L13.15 3.2C13.3667 3.28333 13.5708 3.38333 13.7625 3.5C13.9542 3.61667 14.1417 3.74167 14.325 3.875L16.5 2.975C16.7333 2.875 16.9667 2.8625 17.2 2.9375C17.4333 3.0125 17.6167 3.15833 17.75 3.375L19.6 6.6C19.7333 6.81667 19.775 7.05 19.725 7.3C19.675 7.55 19.55 7.75 19.35 7.9L17.475 9.325C17.4917 9.44167 17.5 9.55417 17.5 9.6625V10.3375C17.5 10.4458 17.4833 10.5583 17.45 10.675L19.325 12.1C19.525 12.25 19.65 12.45 19.7 12.7C19.75 12.95 19.7083 13.1833 19.575 13.4L17.725 16.6C17.5917 16.8167 17.4042 16.9667 17.1625 17.05C16.9208 17.1333 16.6833 17.125 16.45 17.025L14.325 16.125C14.1417 16.2583 13.95 16.3833 13.75 16.5C13.55 16.6167 13.35 16.7167 13.15 16.8L12.85 19.125C12.8167 19.375 12.7083 19.5833 12.525 19.75C12.3417 19.9167 12.125 20 11.875 20H8.125ZM9 18H10.975L11.325 15.35C11.8417 15.2167 12.3208 15.0208 12.7625 14.7625C13.2042 14.5042 13.6083 14.1917 13.975 13.825L16.45 14.85L17.425 13.15L15.275 11.525C15.3583 11.2917 15.4167 11.0458 15.45 10.7875C15.4833 10.5292 15.5 10.2667 15.5 10C15.5 9.73333 15.4833 9.47083 15.45 9.2125C15.4167 8.95417 15.3583 8.70833 15.275 8.475L17.425 6.85L16.45 5.15L13.975 6.2C13.6083 5.81667 13.2042 5.49583 12.7625 5.2375C12.3208 4.97917 11.8417 4.78333 11.325 4.65L11 2H9.025L8.675 4.65C8.15834 4.78333 7.67917 4.97917 7.2375 5.2375C6.79584 5.49583 6.39167 5.80833 6.025 6.175L3.55 5.15L2.575 6.85L4.725 8.45C4.64167 8.7 4.58333 8.95 4.55 9.2C4.51667 9.45 4.5 9.71667 4.5 10C4.5 10.2667 4.51667 10.525 4.55 10.775C4.58333 11.025 4.64167 11.275 4.725 11.525L2.575 13.15L3.55 14.85L6.025 13.8C6.39167 14.1833 6.79584 14.5042 7.2375 14.7625C7.67917 15.0208 8.15834 15.2167 8.675 15.35L9 18ZM10.05 13.5C11.0167 13.5 11.8417 13.1583 12.525 12.475C13.2083 11.7917 13.55 10.9667 13.55 10C13.55 9.03333 13.2083 8.20833 12.525 7.525C11.8417 6.84167 11.0167 6.5 10.05 6.5C9.06667 6.5 8.2375 6.84167 7.5625 7.525C6.8875 8.20833 6.55 9.03333 6.55 10C6.55 10.9667 6.8875 11.7917 7.5625 12.475C8.2375 13.1583 9.06667 13.5 10.05 13.5Z" fill="#9D9AA4"/>
</svg>
