<svg width="3" height="12" viewBox="0 0 3 12" fill="none" xmlns="http://www.w3.org/2000/svg">
<path d="M1.33325 9.33333C1.59847 9.33333 1.85282 9.43869 2.04036 9.62623C2.22789 9.81376 2.33325 10.0681 2.33325 10.3333C2.33325 10.5985 2.22789 10.8529 2.04036 11.0404C1.85282 11.228 1.59847 11.3333 1.33325 11.3333C1.06804 11.3333 0.813681 11.228 0.626145 11.0404C0.438609 10.8529 0.333252 10.5985 0.333252 10.3333C0.333252 10.0681 0.438609 9.81376 0.626145 9.62623C0.813681 9.43869 1.06804 9.33333 1.33325 9.33333ZM1.33325 4.66667C1.59847 4.66667 1.85282 4.77202 2.04036 4.95956C2.22789 5.1471 2.33325 5.40145 2.33325 5.66667C2.33325 5.93188 2.22789 6.18624 2.04036 6.37377C1.85282 6.56131 1.59847 6.66667 1.33325 6.66667C1.06804 6.66667 0.813681 6.56131 0.626145 6.37377C0.438609 6.18624 0.333252 5.93188 0.333252 5.66667C0.333252 5.40145 0.438609 5.1471 0.626145 4.95956C0.813681 4.77202 1.06804 4.66667 1.33325 4.66667ZM1.33325 0C1.59847 0 1.85282 0.105357 2.04036 0.292893C2.22789 0.48043 2.33325 0.734783 2.33325 1C2.33325 1.26522 2.22789 1.51957 2.04036 1.70711C1.85282 1.89464 1.59847 2 1.33325 2C1.06804 2 0.813681 1.89464 0.626145 1.70711C0.438609 1.51957 0.333252 1.26522 0.333252 1C0.333252 0.734783 0.438609 0.48043 0.626145 0.292893C0.813681 0.105357 1.06804 0 1.33325 0Z" fill="#667085"/>
</svg>
